PathFileType   4   (X/Y/Z)
DataRate	CameraRate	NumFrames	NumMarkers	Units	OrigDataRate	OrigDataStartFrame	OrigNumFrames
120.0	120.0	6	37	mm	120.0	68	108
Frame#	Time	midhip	hip_r	hip_l	knee_r	knee_l	ankle_r	ankle_l	midasis	asis_r	asis_l	psis_r	psis_l	epicondLat_r	epicondLat_l	epicondMed_r	epicondMed_l	malleolusLat_r	malleolusLat_l	malleolusMedv_r	malleolusMedv_l	neck	subclavicle_r	subclavicle_l	sternalnotch	xyphoidprocess	thighwand_r	thighwand_l	upperleg1_r	upperleg1_l	upperleg2_r	upperleg2_l	shankwand_r	shankwand_l	lowerleg1_r	lowerleg1_l	toe_r	toe_l
 	 	X1	Y1	Z1	X2	Y2	Z2	X3	Y3	Z3	X4	Y4	Z4	X5	Y5	Z5	X6	Y6	Z6	X7	Y7	Z7	X8	Y8	Z8	X9	Y9	Z9	X10	Y10	Z10	X11	Y11	Z11	X12	Y12	Z12	X13	Y13	Z13	X14	Y14	Z14	X15	Y15	Z15	X16	Y16	Z16	X17	Y17	Z17	X18	Y18	Z18	X19	Y19	Z19	X20	Y20	Z20	X21	Y21	Z21	X22	Y22	Z22	X23	Y23	Z23	X24	Y24	Z24	X25	Y25	Z25	X26	Y26	Z26	X27	Y27	Z27	X28	Y28	Z28	X29	Y29	Z29	X30	Y30	Z30	X31	Y31	Z31	X32	Y32	Z32	X33	Y33	Z33	X34	Y34	Z34	X35	Y35	Z35	X36	Y36	Z36	X37	Y37	Z37

	68	0.65000	1312.245	882.984	-189.688	1302.491	854.651	-119.701	1315.922	873.561	-268.332	1351.383	444.459	-77.876	1391.267	462.819	-215.712	1032.795	208.722	-93.127	1355.765	70.718	-173.331	1397.512	947.021	-175.487	1386.877	932.049	-57.806	1408.147	961.994	-293.169	1209.926	989.704	-152.754	1221.125	998.294	-237.975	1350.041	450.233	-19.677	1403.156	457.756	-272.254	1362.990	420.192	-128.586	1376.101	446.422	-163.829	1021.219	222.044	-57.231	1342.136	68.013	-209.771	1052.930	206.499	-117.716	1357.937	87.247	-148.143	1196.640	1408.864	-174.688	1325.389	1342.970	-113.295	1340.163	1344.885	-220.563	1314.794	1350.671	-166.647	1409.160	1193.301	-168.014	1372.624	545.839	54.093	1523.589	572.443	-212.540	1393.664	607.383	-11.064	1451.487	604.805	-266.784	1406.394	519.885	-25.801	1446.030	518.236	-255.590	1130.663	294.284	35.727	1387.269	192.249	-304.392	1104.973	276.757	-40.074	1359.496	164.044	-232.202	1053.684	87.199	-67.153	1477.330	39.839	-179.683
	69	0.65833	1323.159	883.936	-190.698	1313.654	856.445	-119.623	1327.129	874.390	-268.369	1374.528	447.703	-76.984	1395.098	462.867	-215.680	1060.324	207.209	-91.089	1356.203	70.895	-173.110	1408.990	948.136	-175.991	1398.332	933.944	-58.350	1419.647	962.329	-293.631	1221.584	991.405	-153.612	1232.934	999.866	-239.090	1373.209	453.577	-18.795	1406.662	457.532	-272.265	1384.221	423.106	-126.345	1379.410	447.322	-163.087	1048.627	220.386	-55.179	1342.459	68.305	-209.516	1081.192	204.585	-115.270	1358.407	87.454	-147.825	1208.840	1410.622	-175.080	1337.206	1344.411	-112.918	1352.530	1346.496	-220.318	1326.900	1352.256	-166.419	1421.043	1194.719	-167.598	1393.386	549.508	54.942	1529.089	569.640	-213.151	1412.614	611.894	-10.402	1457.760	603.633	-266.759	1426.795	524.040	-24.688	1450.455	517.502	-255.383	1156.874	294.312	37.264	1388.432	191.956	-304.211	1131.321	276.152	-37.982	1360.683	164.560	-232.023	1087.060	87.829	-61.203	1477.538	39.820	-179.581
	70	0.66667	1334.190	885.134	-191.355	1324.804	858.318	-119.600	1338.329	875.269	-268.458	1397.334	451.194	-76.275	1398.668	462.995	-215.749	1088.762	204.502	-89.041	1356.629	71.077	-172.892	1420.408	949.365	-176.554	1409.727	935.979	-59.003	1431.088	962.751	-294.104	1233.135	993.153	-154.407	1244.608	1001.374	-240.176	1396.101	457.166	-18.093	1409.899	457.399	-272.376	1406.717	427.288	-125.941	1382.683	448.216	-162.410	1076.878	217.508	-53.130	1342.747	68.590	-209.253	1109.651	202.037	-113.214	1358.992	87.878	-147.501	1221.120	1412.468	-175.228	1349.056	1345.984	-113.180	1364.508	1348.530	-220.241	1338.992	1353.838	-166.265	1432.814	1196.456	-168.247	1414.014	553.451	55.584	1534.394	566.789	-213.831	1431.573	616.680	-9.891	1463.620	602.545	-267.008	1447.638	528.851	-24.405	1454.610	516.678	-255.341	1183.504	293.682	38.772	1389.425	191.750	-304.096	1158.544	274.615	-36.004	1361.542	164.990	-232.015	1121.444	87.731	-56.073	1477.702	39.800	-179.471
	71	0.67500	1345.270	886.495	-191.661	1335.977	860.245	-119.626	1349.555	876.207	-268.588	1419.784	454.857	-75.751	1402.040	463.198	-215.907	1118.032	200.684	-87.032	1357.045	71.275	-172.681	1431.792	950.707	-177.154	1421.089	938.124	-59.724	1442.495	963.290	-294.585	1244.595	994.923	-155.098	1256.179	1002.805	-241.158	1418.696	460.928	-17.577	1412.916	457.352	-272.578	1429.437	431.871	-126.240	1386.485	448.023	-162.685	1105.908	213.484	-51.127	1342.995	68.884	-208.983	1138.658	198.871	-111.487	1359.484	88.109	-147.097	1233.677	1413.962	-175.279	1361.086	1347.490	-113.478	1376.265	1350.302	-220.266	1351.099	1355.422	-166.234	1444.592	1198.043	-168.976	1434.492	557.620	56.031	1539.516	563.896	-214.614	1449.933	621.423	-9.495	1468.933	601.634	-267.236	1468.312	534.011	-24.545	1458.717	515.772	-255.861	1210.551	292.432	40.228	1390.255	191.647	-304.065	1186.248	272.319	-34.383	1362.433	165.085	-232.052	1156.729	86.908	-51.826	1477.825	39.781	-179.389
	72	0.68333	1356.897	888.350	-191.624	1347.191	862.190	-119.682	1360.816	877.194	-268.740	1441.856	458.622	-75.414	1405.250	463.467	-216.130	1148.079	195.853	-85.103	1357.456	71.510	-172.482	1443.159	952.136	-177.763	1432.438	940.329	-60.465	1453.881	963.943	-295.062	1255.997	996.683	-155.652	1267.673	1004.153	-241.958	1440.971	464.795	-17.248	1415.745	457.382	-272.847	1452.835	436.090	-126.173	1389.355	448.158	-163.367	1135.671	208.401	-49.206	1343.209	69.213	-208.714	1168.220	194.890	-109.972	1359.951	88.214	-146.736	1246.127	1415.288	-175.553	1373.739	1349.082	-113.258	1387.927	1351.490	-220.450	1363.226	1356.988	-166.329	1456.705	1199.413	-169.111	1454.792	561.963	56.301	1544.450	560.961	-215.493	1467.988	625.846	-9.315	1474.225	600.770	-267.587	1488.947	539.498	-24.510	1462.287	514.896	-256.643	1238.015	290.579	41.606	1390.939	191.657	-304.119	1213.971	269.750	-33.122	1363.444	165.271	-232.025	1192.830	85.394	-48.486	1477.912	39.762	-179.368
	73	0.69167	1368.458	890.097	-191.367	1358.449	864.116	-119.735	1372.103	878.209	-268.879	1463.510	462.424	-75.257	1408.310	463.791	-216.402	1178.863	190.126	-83.291	1357.864	71.804	-172.310	1454.518	953.608	-178.346	1443.791	942.537	-61.181	1465.245	964.679	-295.512	1267.379	998.396	-156.055	1279.117	1005.423	-242.519	1462.883	468.700	-17.098	1418.403	457.484	-273.168	1478.534	440.098	-125.951	1391.369	449.497	-163.515	1166.150	202.356	-47.392	1343.397	69.599	-208.461	1198.630	189.952	-108.433	1360.515	88.412	-146.581	1258.192	1416.703	-175.984	1386.422	1350.747	-113.227	1400.031	1353.011	-220.627	1375.347	1358.481	-166.522	1469.431	1201.176	-169.352	1474.880	566.416	56.421	1549.172	557.980	-216.436	1485.931	630.062	-9.506	1479.630	599.885	-268.333	1510.114	545.523	-24.333	1465.435	514.148	-257.265	1265.895	288.122	42.877	1391.505	191.778	-304.250	1242.431	266.804	-32.017	1363.834	165.625	-231.919	1229.669	83.251	-46.044	1477.974	39.742	-179.434
